<svg width="30" height="30" viewBox="0 0 30 30" fill="none" xmlns="http://www.w3.org/2000/svg">
<path d="M0 21.6V7.65C0 3.44 3.44 0 7.65 0H21.59C25.8 0 29.24 3.44 29.24 7.65V21.59C29.24 25.8 25.8 29.24 21.59 29.24H7.65C3.44 29.25 0 25.8 0 21.6Z" fill="white"/>
<path d="M22.4492 12.5C22.4492 10.56 20.8792 8.98999 18.9392 8.98999H9.95922C8.01922 8.98999 6.44922 10.56 6.44922 12.5V16.68C6.44922 18.62 8.01922 20.19 9.95922 20.19H18.9392C20.8792 20.19 22.4492 18.62 22.4492 16.68V12.5ZM17.1692 14.9L13.1392 16.89C12.9792 16.98 12.4492 16.86 12.4492 16.68V12.59C12.4492 12.41 12.9892 12.29 13.1492 12.38L16.9992 14.48C17.1592 14.58 17.3292 14.81 17.1692 14.9Z" fill="#545EE1"/>
</svg>
