<svg style="display: none;" aria-hidden="true" xmlns="http://www.w3.org/2000/svg" xmlns:xlink="http://www.w3.org/1999/xlink"><symbol viewBox="0 0 42 42" id="activity"><path fill-rule="evenodd" clip-rule="evenodd" d="M25.794 1.6842C26.622 1.6842 27.294 2.3562 27.294 3.1842C27.294 4.0122 26.622 4.6842 25.794 4.6842H11.258C6.242 4.6842 3 8.1322 3 13.4722V29.6362C3 35.0462 6.164 38.4062 11.258 38.4062H28.466C33.482 38.4062 36.724 34.9642 36.724 29.6362V15.5582C36.724 14.7302 37.396 14.0582 38.224 14.0582C39.052 14.0582 39.724 14.7302 39.724 15.5582V29.6362C39.724 36.6762 35.2 41.4062 28.466 41.4062H11.258C4.524 41.4062 0 36.6762 0 29.6362V13.4722C0 6.4222 4.524 1.6842 11.258 1.6842H25.794ZM30.0248 15.3438C30.6808 15.8518 30.8008 16.7938 30.2928 17.4478L24.4328 25.0078C24.1888 25.3238 23.8288 25.5298 23.4328 25.5778C23.0328 25.6318 22.6368 25.5158 22.3208 25.2698L16.6848 20.8418L11.6228 27.4198C11.3268 27.8038 10.8828 28.0058 10.4328 28.0058C10.1128 28.0058 9.7908 27.9038 9.5188 27.6958C8.8628 27.1898 8.7388 26.2478 9.2448 25.5918L15.2308 17.8118C15.4748 17.4938 15.8368 17.2878 16.2328 17.2378C16.6368 17.1858 17.0328 17.2978 17.3468 17.5478L22.9868 21.9778L27.9208 15.6118C28.4288 14.9538 29.3688 14.8318 30.0248 15.3438ZM35.9348 0C38.8828 0 41.2788 2.396 41.2788 5.344C41.2788 8.292 38.8828 10.69 35.9348 10.69C32.9888 10.69 30.5908 8.292 30.5908 5.344C30.5908 2.396 32.9888 0 35.9348 0ZM35.9348 3C34.6428 3 33.5908 4.05 33.5908 5.344C33.5908 6.636 34.6428 7.69 35.9348 7.69C37.2268 7.69 38.2788 6.636 38.2788 5.344C38.2788 4.05 37.2268 3 35.9348 3Z"/></symbol><symbol viewBox="0 0 25 25" id="play"><path d="M12.5 0C19.3895 0 25 5.60781 25 12.5072C25 19.3922 19.3895 25 12.5 25C5.61052 25 0 19.3922 0 12.5072C0 5.60781 5.61052 0 12.5 0ZM11.0763 7.53738C10.8108 7.53738 10.5574 7.59768 10.3161 7.71828C10.0145 7.88712 9.77317 8.15244 9.64044 8.46599C9.55598 8.68307 9.42326 9.3343 9.42326 9.34636C9.29054 10.0579 9.21815 11.2156 9.21815 12.494C9.21815 13.7132 9.29054 14.8215 9.39913 15.5451C9.4112 15.5572 9.54392 16.3652 9.68871 16.6425C9.95415 17.1491 10.473 17.4626 11.028 17.4626H11.0763C11.4382 17.4506 12.1984 17.137 12.1984 17.1249C13.4773 16.5943 15.999 14.9421 17.0125 13.8447L17.0849 13.7723C17.2177 13.6397 17.3866 13.4346 17.4228 13.3864C17.6158 13.1331 17.7124 12.8196 17.7124 12.5072C17.7124 12.1563 17.6038 11.8307 17.3986 11.5654C17.3504 11.5171 17.1694 11.3121 17.0005 11.1433C16.0111 10.082 13.4291 8.34539 12.0777 7.81476C11.8726 7.73155 11.3538 7.54945 11.0763 7.53738Z"/></symbol><symbol viewBox="0 0 39 39" id="send"><path fill-rule="evenodd" clip-rule="evenodd" d="M17.6099 23.6351L24.9239 35.5011C25.2439 36.0211 25.7439 36.0151 25.9459 35.9871C26.1479 35.9591 26.6339 35.8351 26.8099 35.2451L35.9559 4.35505C36.1159 3.80905 35.8219 3.43705 35.6899 3.30505C35.5619 3.17305 35.1959 2.89105 34.6659 3.04105L3.75389 12.0931C3.16789 12.2651 3.03989 12.7571 3.01189 12.9591C2.98389 13.1651 2.97589 13.6751 3.49389 14.0011L15.4959 21.5071L26.0999 10.7911C26.6819 10.2031 27.6319 10.1971 28.2219 10.7791C28.8119 11.3611 28.8159 12.3131 28.2339 12.9011L17.6099 23.6351ZM25.7899 38.9991C24.3979 38.9991 23.1219 38.2911 22.3699 37.0751L14.6159 24.4931L1.90389 16.5431C0.53389 15.6851 -0.18211 14.1571 0.0398899 12.5511C0.25989 10.9451 1.36189 9.66905 2.90989 9.21505L33.8219 0.163055C35.2439 -0.252945 36.7679 0.141055 37.8159 1.18506C38.8639 2.23906 39.2539 3.77906 38.8299 5.20706L29.6839 36.0951C29.2259 37.6491 27.9459 38.7471 26.3439 38.9611C26.1559 38.9851 25.9739 38.9991 25.7899 38.9991Z"/></symbol><symbol viewBox="0 0 42 39" id="wallet"><path fill-rule="evenodd" clip-rule="evenodd" d="M29.284 0C35.898 0 41.278 5.38 41.278 11.996V26.35C41.278 32.964 35.898 38.346 29.284 38.346H11.996C5.382 38.346 0 32.964 0 26.35V11.996C0 5.38 5.382 0 11.996 0H29.284ZM29.284 3H11.996C7.036 3 3 7.036 3 11.996V26.35C3 31.31 7.036 35.346 11.996 35.346H29.284C34.244 35.346 38.278 31.31 38.278 26.35V25.79L31.6822 25.7912C27.8882 25.7912 24.8002 22.7052 24.7982 18.9132C24.7982 15.1172 27.8862 12.0292 31.6822 12.0272L38.278 12.026V11.996C38.278 7.036 34.244 3 29.284 3ZM38.278 15.026L31.6822 15.0272C29.5402 15.0292 27.7982 16.7712 27.7982 18.9112C27.7982 21.0492 29.5422 22.7912 31.6822 22.7912L38.278 22.79V15.026ZM32.5974 17.2872C33.4254 17.2872 34.0974 17.9592 34.0974 18.7872C34.0974 19.6152 33.4254 20.2872 32.5974 20.2872H31.9734C31.1454 20.2872 30.4734 19.6152 30.4734 18.7872C30.4734 17.9592 31.1454 17.2872 31.9734 17.2872H32.5974ZM21.37 9.0762C22.198 9.0762 22.87 9.7482 22.87 10.5762C22.87 11.4042 22.198 12.0762 21.37 12.0762H10.572C9.744 12.0762 9.072 11.4042 9.072 10.5762C9.072 9.7482 9.744 9.0762 10.572 9.0762H21.37Z"/></symbol></svg>