<svg width="30" height="30" viewBox="0 0 30 30" fill="none" xmlns="http://www.w3.org/2000/svg">
<path d="M0 21.59V7.65C0 3.44 3.44 0 7.65 0H21.59C25.8 0 29.24 3.44 29.24 7.65V21.59C29.24 25.8 25.8 29.24 21.59 29.24H16.9L14.45 28.64L12.34 29.24H7.65C3.44 29.24 0 25.8 0 21.59Z" fill="white"/>
<path d="M20.3091 19.3299L20.9591 15.0999H16.8991V12.3599C16.8991 11.1999 17.4691 10.0799 19.2791 10.0799H21.1191V6.47994C21.1191 6.47994 19.4491 6.18994 17.8491 6.18994C14.5091 6.18994 12.3291 8.20994 12.3291 11.8799V15.0999H8.61914V19.3299H12.3291V29.2399H16.8991V19.3299H20.3091Z" fill="#545EE1"/>
</svg>
