<svg width="30" height="30" viewBox="0 0 30 30" fill="none" xmlns="http://www.w3.org/2000/svg">
<path d="M0 21.59V7.65C0 3.44 3.44 0 7.65 0H21.59C25.8 0 29.24 3.44 29.24 7.65V21.59C29.24 25.8 25.8 29.24 21.59 29.24H7.65C3.44 29.24 0 25.8 0 21.59Z" fill="white"/>
<path d="M19.1602 9.11011C18.6102 9.11011 18.1602 9.56011 18.1602 10.1101C18.1602 10.6701 18.6102 11.1201 19.1602 11.1201C19.7202 11.1201 20.1702 10.6701 20.1702 10.1101C20.1602 9.56011 19.7102 9.11011 19.1602 9.11011Z" fill="#545EE1"/>
<path d="M14.6907 10.4001C12.3607 10.4001 10.4707 12.2901 10.4707 14.6201C10.4707 16.9501 12.3607 18.8401 14.6907 18.8401C17.0207 18.8401 18.9107 16.9501 18.9107 14.6201C18.9107 12.2901 17.0207 10.4001 14.6907 10.4001ZM14.6907 17.3301C13.2007 17.3301 11.9907 16.1201 11.9907 14.6301C11.9907 13.1401 13.2007 11.9301 14.6907 11.9301C16.1807 11.9301 17.3907 13.1401 17.3907 14.6301C17.3907 16.1201 16.1807 17.3301 14.6907 17.3301Z" fill="#545EE1"/>
<path d="M18.0408 23.19H11.2008C8.36078 23.19 6.05078 20.88 6.05078 18.04V11.2C6.05078 8.36005 8.36078 6.05005 11.2008 6.05005H18.0408C20.8808 6.05005 23.1908 8.36005 23.1908 11.2V18.04C23.1908 20.88 20.8808 23.19 18.0408 23.19ZM11.2008 7.66005C9.25078 7.66005 7.66078 9.25005 7.66078 11.2V18.04C7.66078 19.99 9.25078 21.58 11.2008 21.58H18.0408C19.9908 21.58 21.5808 19.99 21.5808 18.04V11.2C21.5808 9.25005 19.9908 7.66005 18.0408 7.66005H11.2008Z" fill="#545EE1"/>
</svg>
