<svg width="30" height="30" viewBox="0 0 30 30" fill="none" xmlns="http://www.w3.org/2000/svg">
<path d="M0 21.6V7.65C0 3.44 3.44 0 7.65 0H21.59C25.8 0 29.24 3.44 29.24 7.65V21.59C29.24 25.8 25.8 29.24 21.59 29.24H7.65C3.45 29.25 0 25.8 0 21.6Z" fill="white"/>
<path fill-rule="evenodd" clip-rule="evenodd" d="M13.5006 17.8C13.4906 17.85 13.4706 17.89 13.4606 17.94C12.8106 20.49 12.7406 21.06 12.0706 22.25C11.7506 22.81 11.3906 23.35 10.9906 23.86C10.9406 23.92 10.9006 23.99 10.8106 23.97C10.7106 23.95 10.7006 23.86 10.6906 23.78C10.5806 23 10.5206 22.23 10.5506 21.44C10.5806 20.42 10.7106 20.07 12.0306 14.54C12.0506 14.46 12.0306 14.39 12.0006 14.31C11.6906 13.46 11.6206 12.6 11.9006 11.72C12.5006 9.82996 14.6306 9.68996 15.0106 11.25C15.2406 12.21 14.6306 13.47 14.1606 15.34C13.7706 16.88 15.5806 17.97 17.1306 16.85C18.5606 15.82 19.1106 13.34 19.0006 11.58C18.7906 8.07996 14.9506 7.31996 12.5106 8.44996C9.72061 9.73996 9.08062 13.21 10.3406 14.79C10.5006 14.99 10.6206 15.11 10.5706 15.32C10.4906 15.64 10.4206 15.96 10.3306 16.27C10.2606 16.5 10.0706 16.59 9.83061 16.49C9.36061 16.3 8.98062 16.01 8.66062 15.62C7.59062 14.29 7.28062 11.67 8.70062 9.44996C10.2706 6.98996 13.1906 5.98996 15.8506 6.28996C19.0306 6.64996 21.0506 8.82996 21.4206 11.29C21.5906 12.41 21.4706 15.19 19.8906 17.15C18.0706 19.4 15.1306 19.55 13.7706 18.17C13.6906 18.06 13.6006 17.93 13.5006 17.8Z" fill="#545EE1"/>
</svg>
