<svg width="42" height="39" viewBox="0 0 42 39" fill="none" xmlns="http://www.w3.org/2000/svg">
<path fill-rule="evenodd" clip-rule="evenodd" d="M29.284 0C35.898 0 41.278 5.38 41.278 11.996V26.35C41.278 32.964 35.898 38.346 29.284 38.346H11.996C5.382 38.346 0 32.964 0 26.35V11.996C0 5.38 5.382 0 11.996 0H29.284ZM29.284 3H11.996C7.036 3 3 7.036 3 11.996V26.35C3 31.31 7.036 35.346 11.996 35.346H29.284C34.244 35.346 38.278 31.31 38.278 26.35V25.79L31.6822 25.7912C27.8882 25.7912 24.8002 22.7052 24.7982 18.9132C24.7982 15.1172 27.8862 12.0292 31.6822 12.0272L38.278 12.026V11.996C38.278 7.036 34.244 3 29.284 3ZM38.278 15.026L31.6822 15.0272C29.5402 15.0292 27.7982 16.7712 27.7982 18.9112C27.7982 21.0492 29.5422 22.7912 31.6822 22.7912L38.278 22.79V15.026ZM32.5974 17.2872C33.4254 17.2872 34.0974 17.9592 34.0974 18.7872C34.0974 19.6152 33.4254 20.2872 32.5974 20.2872H31.9734C31.1454 20.2872 30.4734 19.6152 30.4734 18.7872C30.4734 17.9592 31.1454 17.2872 31.9734 17.2872H32.5974ZM21.37 9.0762C22.198 9.0762 22.87 9.7482 22.87 10.5762C22.87 11.4042 22.198 12.0762 21.37 12.0762H10.572C9.744 12.0762 9.072 11.4042 9.072 10.5762C9.072 9.7482 9.744 9.0762 10.572 9.0762H21.37Z" fill="white"/>
</svg>
