<svg width="42" height="42" viewBox="0 0 42 42" fill="none" xmlns="http://www.w3.org/2000/svg">
<path fill-rule="evenodd" clip-rule="evenodd" d="M25.794 1.6842C26.622 1.6842 27.294 2.3562 27.294 3.1842C27.294 4.0122 26.622 4.6842 25.794 4.6842H11.258C6.242 4.6842 3 8.1322 3 13.4722V29.6362C3 35.0462 6.164 38.4062 11.258 38.4062H28.466C33.482 38.4062 36.724 34.9642 36.724 29.6362V15.5582C36.724 14.7302 37.396 14.0582 38.224 14.0582C39.052 14.0582 39.724 14.7302 39.724 15.5582V29.6362C39.724 36.6762 35.2 41.4062 28.466 41.4062H11.258C4.524 41.4062 0 36.6762 0 29.6362V13.4722C0 6.4222 4.524 1.6842 11.258 1.6842H25.794ZM30.0248 15.3438C30.6808 15.8518 30.8008 16.7938 30.2928 17.4478L24.4328 25.0078C24.1888 25.3238 23.8288 25.5298 23.4328 25.5778C23.0328 25.6318 22.6368 25.5158 22.3208 25.2698L16.6848 20.8418L11.6228 27.4198C11.3268 27.8038 10.8828 28.0058 10.4328 28.0058C10.1128 28.0058 9.7908 27.9038 9.5188 27.6958C8.8628 27.1898 8.7388 26.2478 9.2448 25.5918L15.2308 17.8118C15.4748 17.4938 15.8368 17.2878 16.2328 17.2378C16.6368 17.1858 17.0328 17.2978 17.3468 17.5478L22.9868 21.9778L27.9208 15.6118C28.4288 14.9538 29.3688 14.8318 30.0248 15.3438ZM35.9348 0C38.8828 0 41.2788 2.396 41.2788 5.344C41.2788 8.292 38.8828 10.69 35.9348 10.69C32.9888 10.69 30.5908 8.292 30.5908 5.344C30.5908 2.396 32.9888 0 35.9348 0ZM35.9348 3C34.6428 3 33.5908 4.05 33.5908 5.344C33.5908 6.636 34.6428 7.69 35.9348 7.69C37.2268 7.69 38.2788 6.636 38.2788 5.344C38.2788 4.05 37.2268 3 35.9348 3Z" fill="#545EE1"/>
</svg>
